<?xml version="1.0" encoding="UTF-8" standalone="no"?>
<!DOCTYPE svg PUBLIC "-//W3C//DTD SVG 1.1//EN" "http://www.w3.org/Graphics/SVG/1.1/DTD/svg11.dtd">
<svg width="100%" height="100%" viewBox="0 0 960 640" version="1.1" xmlns="http://www.w3.org/2000/svg" xmlns:xlink="http://www.w3.org/1999/xlink" xml:space="preserve" xmlns:serif="http://www.serif.com/" style="fill-rule:evenodd;clip-rule:evenodd;stroke-linejoin:round;stroke-miterlimit:2;">
    <g id="Colour" transform="matrix(0.329953,0,0,0.329953,-153.509,-172.07)">
        <g id="Cree-Passthrough" serif:id="Cree Passthrough" transform="matrix(1.80071,0,0,1.80071,1.90704,-505.81)">
            <g transform="matrix(0.364037,0,0,0.379486,182.528,887.501)">
                <g transform="matrix(1,0,0,1,3177.55,0)">
                    <g id="Maple-Leaf-Curve" serif:id="Maple Leaf Curve" transform="matrix(0.605736,0,0,0.581866,963.953,550.698)">
                        <path d="M388.454,749.499L363.774,749.499C363.774,749.499 367.376,682.866 369.53,643.027C369.91,635.983 367.047,629.151 361.756,624.478C356.464,619.804 349.324,617.802 342.37,619.04C302.708,626.104 236.022,637.98 236.022,637.98C236.022,637.98 245.685,611.477 250.969,596.985C252.977,591.478 251.26,585.305 246.696,581.62C218.181,558.603 119.495,478.944 119.495,478.944C119.495,478.944 134.75,471.758 145.494,466.696C151.408,463.91 154.322,457.166 152.294,450.958C144.72,427.768 127.652,375.512 127.652,375.512C127.652,375.512 176.947,385.962 198.953,390.627C204.998,391.908 211.108,388.755 213.559,383.09C218.784,371.01 227.011,351.991 227.011,351.991C227.011,351.991 250.511,377.191 271.921,400.15C276.328,404.875 283.334,406.116 289.099,403.193C294.864,400.27 297.995,393.889 296.776,387.548C286.821,335.789 272.624,261.968 272.624,261.968C272.624,261.968 298.569,276.709 314.333,285.665C317.415,287.417 321.082,287.832 324.479,286.814C327.875,285.796 330.707,283.434 332.315,280.277C345.654,254.086 376.004,194.493 376.004,194.493C376.004,194.493 406.815,254.207 420.308,280.356C421.926,283.493 424.76,285.832 428.149,286.829C431.539,287.827 435.189,287.395 438.252,285.636C453.85,276.677 479.458,261.968 479.458,261.968C479.458,261.968 465.242,334.716 455.14,386.412C453.873,392.897 457.058,399.437 462.949,402.446C468.84,405.454 476.014,404.205 480.537,399.382C501.874,376.633 524.986,351.991 524.986,351.991C524.986,351.991 533.221,371.016 538.449,383.096C540.9,388.758 547.008,391.91 553.051,390.63C575.075,385.967 624.454,375.512 624.454,375.512C624.454,375.512 607.555,427.736 600.047,450.937C598.031,457.167 600.947,463.925 606.865,466.742C617.495,471.801 632.504,478.944 632.504,478.944C632.504,478.944 534.455,558.312 505.818,581.494C501.166,585.259 499.401,591.547 501.415,597.179C506.612,611.712 516.005,637.98 516.005,637.98C516.005,637.98 449.17,626.055 409.609,618.997C402.726,617.769 395.657,619.749 390.418,624.374C385.179,628.998 382.342,635.76 382.717,642.733C384.856,682.537 388.454,749.499 388.454,749.499Z" style="fill:white;"/>
                    </g>
                    <g transform="matrix(5.26936e-14,-860.552,860.552,5.26936e-14,927.043,1142.02)">
                        <rect x="0.151" y="-0.125" width="0.434" height="0.125" style="fill:white;fill-rule:nonzero;"/>
                    </g>
                    <g transform="matrix(5.26936e-14,-860.552,860.552,5.26936e-14,927.043,1142.02)">
                        <path d="M0.661,-0.125L0.368,-0.7L0.075,-0.125L0.011,-0L0.151,-0L0.215,-0.125L0.368,-0.425L0.521,-0.125L0.585,-0L0.725,-0L0.661,-0.125Z" style="fill:white;fill-rule:nonzero;"/>
                    </g>
                </g>
                <g transform="matrix(0.999233,0,0,1.03351,-1980.21,-1072.59)">
                    <path d="M4688.52,1539.14L4688.52,1822.26C4688.52,2005.12 4838.37,2153.57 5022.94,2153.57C5207.51,2153.57 5357.36,2005.12 5357.36,1822.26L5357.36,1539.14L5249.71,1539.14L5249.71,1822.26C5249.71,1944.17 5145.99,2049.49 5022.94,2049.49C4899.89,2049.49 4796.14,1944.17 4796.14,1822.26C4796.14,1700.36 4799.99,1539.14 4799.99,1539.14" style="fill:white;"/>
                </g>
                <g>
                    <g transform="matrix(5.3799e-14,-878.605,860.552,5.26936e-14,2546.12,1032.1)">
                        <rect x="0.151" y="-0.125" width="0.434" height="0.125" style="fill:white;fill-rule:nonzero;"/>
                    </g>
                    <g transform="matrix(5.3799e-14,-878.605,860.552,5.26936e-14,2299.37,1032.1)">
                        <rect x="0.151" y="-0.125" width="0.434" height="0.125" style="fill:white;fill-rule:nonzero;"/>
                    </g>
                </g>
                <g transform="matrix(1,0,0,1,925.848,0)">
                    <g transform="matrix(1.08676,0,0,1.07077,-78.846,-136.071)">
                        <ellipse cx="876.119" cy="434.028" rx="68.182" ry="66.382" style="fill:white;"/>
                    </g>
                    <g transform="matrix(1.08676,0,0,1.07077,158.305,360.591)">
                        <ellipse cx="876.119" cy="434.028" rx="68.182" ry="66.382" style="fill:white;"/>
                    </g>
                    <g transform="matrix(5.26936e-14,-860.552,860.552,5.26936e-14,927.043,1142.02)">
                        <rect x="0.151" y="-0.125" width="0.434" height="0.125" style="fill:white;fill-rule:nonzero;"/>
                    </g>
                    <g transform="matrix(5.26936e-14,-860.552,860.552,5.26936e-14,927.043,1142.02)">
                        <path d="M0.661,-0.125L0.368,-0.7L0.075,-0.125L0.011,-0L0.151,-0L0.215,-0.125L0.368,-0.425L0.521,-0.125L0.585,-0L0.725,-0L0.661,-0.125Z" style="fill:white;fill-rule:nonzero;"/>
                    </g>
                </g>
                <g>
                    <g transform="matrix(1.08676,0,0,1.07077,-78.846,-136.071)">
                        <ellipse cx="876.119" cy="434.028" rx="68.182" ry="66.382" style="fill:white;"/>
                    </g>
                    <g transform="matrix(1.08675,0,0,1.07077,158.308,360.591)">
                        <ellipse cx="876.119" cy="434.028" rx="68.182" ry="66.382" style="fill:white;"/>
                    </g>
                    <g transform="matrix(5.26936e-14,-860.552,860.552,5.26936e-14,927.043,1142.02)">
                        <rect x="0.151" y="-0.125" width="0.434" height="0.125" style="fill:white;fill-rule:nonzero;"/>
                    </g>
                    <g transform="matrix(5.26936e-14,-860.552,860.552,5.26936e-14,927.043,1142.02)">
                        <path d="M0.661,-0.125L0.368,-0.7L0.075,-0.125L0.011,-0L0.151,-0L0.215,-0.125L0.368,-0.425L0.521,-0.125L0.585,-0L0.725,-0L0.661,-0.125Z" style="fill:white;fill-rule:nonzero;"/>
                    </g>
                </g>
            </g>
            <g transform="matrix(1.24965,0,0,1.24965,-995.086,-513.405)">
                <g transform="matrix(268.679,0,0,268.679,1211.4,1715.87)">
                    <path d="M0.15,-0L0.15,-0.64L0.451,-0.129L0.493,-0.129L0.794,-0.64L0.794,-0L0.851,-0L0.851,-0.73L0.786,-0.73L0.472,-0.198L0.158,-0.73L0.094,-0.73L0.094,-0L0.15,-0Z" style="fill:white;fill-rule:nonzero;"/>
                </g>
                <g transform="matrix(268.679,0,0,268.679,1465.04,1715.87)">
                    <path d="M0.545,-0L0.545,-0.055L0.15,-0.055L0.15,-0.348L0.515,-0.348L0.515,-0.402L0.15,-0.402L0.15,-0.676L0.535,-0.676L0.535,-0.73L0.094,-0.73L0.094,-0L0.545,-0Z" style="fill:white;fill-rule:nonzero;"/>
                </g>
                <g transform="matrix(268.679,0,0,268.679,1621.67,1715.87)">
                    <path d="M0.307,-0C0.542,-0 0.69,-0.163 0.69,-0.366C0.69,-0.567 0.533,-0.73 0.307,-0.73L0.094,-0.73L0.094,-0L0.307,-0ZM0.15,-0.674L0.307,-0.674C0.503,-0.674 0.632,-0.531 0.632,-0.368C0.632,-0.197 0.512,-0.056 0.307,-0.056L0.15,-0.056L0.15,-0.674Z" style="fill:white;fill-rule:nonzero;"/>
                </g>
                <g transform="matrix(268.679,0,0,268.679,1819.42,1715.87)">
                    <rect x="0.094" y="-0.73" width="0.056" height="0.73" style="fill:white;fill-rule:nonzero;"/>
                </g>
                <g transform="matrix(268.679,0,0,268.679,1884.98,1715.87)">
                    <path d="M0.087,-0L0.177,-0.231L0.502,-0.231L0.593,-0L0.654,-0L0.371,-0.73L0.308,-0.73L0.025,-0L0.087,-0ZM0.339,-0.655L0.484,-0.286L0.196,-0.286L0.339,-0.655Z" style="fill:white;fill-rule:nonzero;"/>
                </g>
            </g>
        </g>
        <g transform="matrix(1,0,0,1,242.692,283.093)">
            <g id="Curve">
                <path d="M300.714,929.165L300.714,287.573C300.714,287.573 810.481,174.946 1477.98,500.146C2306.37,903.728 3053.9,1017.8 3053.9,1017.8C3053.9,1017.8 2560.85,1001.32 2315.64,976.384C2052.98,949.677 1585.55,881.668 1413.39,864.834C632.982,788.523 300.714,929.165 300.714,929.165Z" style="fill:url(#_Linear1);"/>
            </g>
        </g>
    </g>
    <defs>
        <linearGradient id="_Linear1" x1="0" y1="0" x2="1" y2="0" gradientUnits="userSpaceOnUse" gradientTransform="matrix(2753.19,58.9306,-58.9306,2753.19,300.714,621.657)"><stop offset="0" style="stop-color:rgb(101,232,62);stop-opacity:1"/><stop offset="1" style="stop-color:rgb(38,207,149);stop-opacity:1"/></linearGradient>
    </defs>
</svg>
